<svg width="35" height="39" viewBox="0 0 35 39" fill="none" xmlns="http://www.w3.org/2000/svg">

<path id="Vector" d="M10.0094 23.3339C10.273 23.3339 10.4883 23.1051 10.501 22.8174C10.5015 22.8084 10.5017 22.7993 10.5017 22.7902C10.5017 22.4899 10.2813 22.2465 10.0094 22.2465C9.73753 22.2465 9.51709 22.4899 9.51709 22.7902C9.51709 22.7993 9.51733 22.8084 9.51775 22.8174C9.5305 23.1051 9.74576 23.3339 10.0094 23.3339Z" fill="#524F5E"/>
<path id="Vector_2" d="M25.3878 22.2465C25.1159 22.2465 24.8955 22.4899 24.8955 22.7902C24.8955 22.7993 24.8958 22.8084 24.8962 22.8174C24.909 23.1051 25.1242 23.3339 25.3878 23.3339C25.6515 23.3339 25.8667 23.1051 25.8795 22.8174C25.88 22.8084 25.8801 22.7993 25.8801 22.7902C25.8801 22.4899 25.6597 22.2465 25.3878 22.2465Z" fill="#524F5E"/>
<path id="Vector_3" d="M6.14854 22.9206H7.65417C7.71533 24.2988 8.74652 25.395 10.0096 25.395C11.2727 25.395 12.3039 24.2988 12.365 22.9206H23.0322C23.0934 24.2988 24.1245 25.395 25.3876 25.395C26.6506 25.395 27.6819 24.2988 27.743 22.9206H28.977C29.1156 22.9206 29.2414 22.8519 29.3323 22.7412C29.4232 22.6305 29.4795 22.4778 29.4795 22.3087C29.4795 22.1633 29.437 22.0225 29.3593 21.9118L29.1032 21.5465C29.6751 20.116 29.4747 18.066 29.2839 16.8858C29.1744 16.206 28.8382 15.6117 28.3533 15.2495C27.7723 14.8152 26.783 14.2216 25.1522 13.5888C21.9066 12.3296 16.1691 13.4239 15.0394 14.4476C14.1391 15.2629 12.3581 17.1957 10.1004 17.482C8.92726 17.6305 7.92264 18.0095 7.22804 18.3396C6.60981 18.6331 6.19619 19.3488 6.1737 20.156L6.14916 21.0312L5.75763 21.3492C5.65949 21.429 5.58107 21.5354 5.52713 21.6583C5.47322 21.7809 5.44385 21.9198 5.44385 22.0629C5.44388 22.5366 5.75939 22.9206 6.14854 22.9206ZM26.8774 22.9206C26.8172 23.7698 26.1721 24.4408 25.3876 24.4408C24.6032 24.4408 23.958 23.7698 23.8979 22.9206C23.8947 22.8778 23.893 22.8343 23.893 22.7904C23.893 21.8801 24.5634 21.1396 25.3876 21.1396C26.2118 21.1396 26.8822 21.8801 26.8822 22.7904C26.8822 22.8343 26.8805 22.8778 26.8774 22.9206ZM28.7866 18.7427C28.9018 18.769 28.986 18.8781 28.9924 19.0079C29.0208 19.5855 28.9432 20.1803 28.8914 20.4983C28.8692 20.6341 28.7622 20.7325 28.6373 20.7325H28.4646C28.3124 20.7325 28.1932 20.588 28.2075 20.4207L28.3112 19.1983C28.3164 19.1371 28.3394 19.0794 28.3767 19.0337L28.5427 18.8308C28.604 18.7557 28.6969 18.7222 28.7866 18.7427ZM23.7215 16.0901L23.8952 15.1969C23.9712 14.8062 24.266 14.5137 24.6259 14.472L24.7733 14.4549C24.8042 14.4662 24.8357 14.4773 24.866 14.4891C26.4627 15.1087 27.3804 15.6743 27.869 16.0396C28.1589 16.2562 28.3645 16.6255 28.4334 17.053C28.4418 17.105 28.4499 17.1567 28.4577 17.2083H24.5394C24.3608 17.2083 24.1869 17.1451 24.0431 17.0281C23.7782 16.8126 23.6524 16.4455 23.7215 16.0901ZM20.1464 19.2821H19.2825C19.1203 19.2821 18.9888 19.1368 18.9888 18.9577C18.9888 18.7785 19.1203 18.6332 19.2825 18.6332H20.1464C20.3087 18.6332 20.4402 18.7785 20.4402 18.9577C20.4402 19.1368 20.3087 19.2821 20.1464 19.2821ZM15.2389 15.5104C15.3714 15.3853 15.4858 15.2772 15.5872 15.1855C15.7377 15.0491 16.3696 14.7115 17.6849 14.4089C18.7794 14.1571 19.9935 14.0082 21.1423 13.9823L20.7406 16.5274C20.6392 17.1697 20.1459 17.647 19.556 17.6735L13.5574 17.9424C13.2157 17.9577 12.887 17.8181 12.6433 17.5627C13.7326 16.9315 14.6125 16.1016 15.2389 15.5104ZM10.0096 21.1396C10.8338 21.1396 11.5042 21.8801 11.5042 22.7904C11.5042 22.8343 11.5025 22.8778 11.4994 22.9206C11.4392 23.7698 10.794 24.4408 10.0096 24.4408C9.22514 24.4408 8.57996 23.7698 8.51986 22.9206C8.51672 22.8778 8.51499 22.8343 8.51499 22.7904C8.51502 21.8801 9.18543 21.1396 10.0096 21.1396ZM7.07799 19.3076C7.3134 19.3076 7.50419 19.6265 7.50419 20.0201C7.50419 20.4135 7.3134 20.7325 7.07799 20.7325C6.84262 20.7325 6.6518 20.4136 6.6518 20.0201C6.65183 19.6265 6.84262 19.3076 7.07799 19.3076Z" fill="#524F5E"/>

</svg>
