<svg width="33" height="35" viewBox="0 0 33 35" fill="none" xmlns="http://www.w3.org/2000/svg">
<g id="clothing 1">
<path id="Vector" d="M16.757 17.5919V20.689H22.4047C21.7728 19.9474 21.4173 18.8569 21.4173 17.5919C21.4173 15.4545 20.2325 14.4948 19.0872 14.4948C18.4947 14.4948 17.9023 14.7565 17.5074 15.2364C17.0335 15.7598 16.757 16.5886 16.757 17.5919ZM22.6021 17.5919C22.6021 18.5952 22.8786 19.424 23.392 19.9911C23.8264 20.4709 24.4189 20.7326 25.0508 20.7326C26.2356 20.7326 27.4994 19.7293 27.4994 17.5919V3.5896H25.6432V6.5122C25.6432 6.86117 25.3667 7.16651 25.0508 7.16651C24.7348 7.16651 24.4583 6.86117 24.4583 6.5122V3.5896H22.7601V6.5122C22.7601 6.86117 22.4836 7.16651 22.1677 7.16651C21.8517 7.16651 21.5753 6.86117 21.5753 6.5122V3.5896H19.7191V6.5122C19.7191 6.86117 19.4426 7.16651 19.1267 7.16651C18.8107 7.16651 18.5342 6.86117 18.5342 6.5122V3.5896H16.678V13.2298H18.8502V13.1862C19.0082 13.1862 18.9292 13.1862 18.9687 13.1862C19.877 13.1862 20.7854 13.5788 21.4173 14.3203C22.2072 15.1055 22.6021 16.2397 22.6021 17.5919ZM13.8739 28.3663V31.3761H15.5722V17.5919C15.5722 16.2397 15.9671 15.28 16.5595 14.5384H7.31794C6.21211 14.5384 4.98779 15.4981 4.98779 17.5919V31.4197H6.84401V28.4099C6.84401 28.0609 7.12047 27.7556 7.43642 27.7556C7.75237 27.7556 8.02883 28.0609 8.02883 28.4099V31.4197H9.72708V28.4099C9.72708 28.0609 10.0035 27.7556 10.3195 27.7556C10.6354 27.7556 10.9119 28.0609 10.9119 28.4099V31.4197H12.7681V28.4099C12.7681 28.0609 13.0446 27.7556 13.3605 27.7556C13.637 27.7556 13.8739 28.0173 13.8739 28.3663Z" fill="#524F5E"/>
</g>
</svg>
