<svg width="32" height="32" viewBox="0 0 32 32" fill="none" xmlns="http://www.w3.org/2000/svg">
<g id="favorite 2">
<path id="XMLID_16_" d="M16.842 3.54801L20.132 10.532C20.269 10.822 20.533 11.023 20.839 11.07L28.196 12.19C28.966 12.307 29.273 13.298 28.716 13.867L23.392 19.303C23.171 19.529 23.07 19.854 23.122 20.173L24.379 27.849C24.51 28.652 23.706 29.265 23.017 28.885L16.437 25.261C16.164 25.11 15.837 25.11 15.564 25.261L8.98401 28.885C8.29601 29.264 7.49101 28.652 7.62201 27.849L8.87901 20.173C8.93101 19.854 8.83001 19.529 8.60901 19.303L3.28501 13.867C2.72801 13.298 3.03501 12.307 3.80501 12.19L11.162 11.07C11.468 11.023 11.732 10.822 11.869 10.532L15.159 3.54801C15.503 2.81701 16.497 2.81701 16.842 3.54801Z" fill="#F8DC25"/>
</g>
</svg>
