<svg width="33" height="32" viewBox="0 0 33 32" fill="none" xmlns="http://www.w3.org/2000/svg">
<g id="favorite 1">
<path id="XMLID_16_" d="M16.8858 3.62388L20.1843 10.5897C20.3217 10.879 20.5864 11.0795 20.8932 11.1263L28.2693 12.2434C29.0413 12.3601 29.3491 13.3485 28.7906 13.9161L23.4528 19.3379C23.2312 19.5634 23.1299 19.8875 23.1821 20.2057L24.4423 27.8617C24.5737 28.6627 23.7676 29.2741 23.0768 28.895L16.4797 25.2805C16.206 25.1299 15.8782 25.1299 15.6045 25.2805L9.00736 28.895C8.31758 29.2731 7.51049 28.6627 7.64183 27.8617L8.90209 20.2057C8.95423 19.8875 8.85296 19.5634 8.63139 19.3379L3.29356 13.9161C2.73512 13.3485 3.04292 12.3601 3.81491 12.2434L11.191 11.1263C11.4978 11.0795 11.7625 10.879 11.8999 10.5897L15.1984 3.62388C15.5433 2.89478 16.5399 2.89478 16.8858 3.62388Z" stroke="#524F5E" stroke-width="2" stroke-miterlimit="10" stroke-linecap="round" stroke-linejoin="round"/>
</g>
</svg>
