<svg width="31" height="33" viewBox="0 0 31 33" fill="none" xmlns="http://www.w3.org/2000/svg">
<g id="pc 1">
<g id="Layer 40">
<path id="Vector" d="M26.3512 24.7968H4.13581C3.39932 24.7968 2.693 24.4737 2.17223 23.8985C1.65145 23.3233 1.35889 22.5432 1.35889 21.7297V5.3719C1.35889 4.55846 1.65145 3.77833 2.17223 3.20314C2.693 2.62795 3.39932 2.30481 4.13581 2.30481H26.3512C27.0877 2.30481 27.794 2.62795 28.3148 3.20314C28.8356 3.77833 29.1281 4.55846 29.1281 5.3719V21.7297C29.1281 22.5432 28.8356 23.3233 28.3148 23.8985C27.794 24.4737 27.0877 24.7968 26.3512 24.7968ZM4.13581 4.34954C3.89032 4.34954 3.65487 4.45725 3.48128 4.64898C3.30769 4.84071 3.21017 5.10075 3.21017 5.3719V21.7297C3.21017 22.0009 3.30769 22.2609 3.48128 22.4527C3.65487 22.6444 3.89032 22.7521 4.13581 22.7521H26.3512C26.5967 22.7521 26.8321 22.6444 27.0057 22.4527C27.1793 22.2609 27.2768 22.0009 27.2768 21.7297V5.3719C27.2768 5.10075 27.1793 4.84071 27.0057 4.64898C26.8321 4.45725 26.5967 4.34954 26.3512 4.34954H4.13581Z" fill="#524F5E"/>
<path id="Vector_2" d="M19.8717 30.931H10.6153C10.4802 30.9329 10.3464 30.9021 10.2232 30.8408C10.1 30.7796 9.9905 30.6892 9.90229 30.5762C9.81407 30.4632 9.74933 30.3302 9.7126 30.1866C9.67587 30.043 9.66804 29.8923 9.68967 29.745L10.6153 23.6108C10.6508 23.3689 10.7638 23.1491 10.9337 22.9915C11.1036 22.8339 11.3191 22.7489 11.541 22.752H18.9461C19.168 22.7489 19.3835 22.8339 19.5534 22.9915C19.7233 23.1491 19.8362 23.3689 19.8717 23.6108L20.7974 29.745C20.819 29.8923 20.8112 30.043 20.7744 30.1866C20.7377 30.3302 20.673 30.4632 20.5848 30.5762C20.4965 30.6892 20.387 30.7796 20.2638 30.8408C20.1406 30.9021 20.0068 30.9329 19.8717 30.931ZM11.7076 28.8862H18.7795L18.1593 24.7968H12.3277L11.7076 28.8862Z" fill="#524F5E"/>
<path id="Vector_3" d="M22.6485 30.931H7.83824C7.59274 30.931 7.3573 30.8232 7.18371 30.6315C7.01012 30.4398 6.9126 30.1797 6.9126 29.9086C6.9126 29.6374 7.01012 29.3774 7.18371 29.1857C7.3573 28.9939 7.59274 28.8862 7.83824 28.8862H22.6485C22.894 28.8862 23.1294 28.9939 23.303 29.1857C23.4766 29.3774 23.5741 29.6374 23.5741 29.9086C23.5741 30.1797 23.4766 30.4398 23.303 30.6315C23.1294 30.8232 22.894 30.931 22.6485 30.931Z" fill="#524F5E"/>
<path id="Vector_4" d="M28.2025 19.685H2.28453C2.03903 19.685 1.80359 19.5773 1.63 19.3855C1.45641 19.1938 1.35889 18.9338 1.35889 18.6626C1.35889 18.3915 1.45641 18.1314 1.63 17.9397C1.80359 17.748 2.03903 17.6403 2.28453 17.6403H28.2025C28.448 17.6403 28.6834 17.748 28.857 17.9397C29.0306 18.1314 29.1281 18.3915 29.1281 18.6626C29.1281 18.9338 29.0306 19.1938 28.857 19.3855C28.6834 19.5773 28.448 19.685 28.2025 19.685Z" fill="#524F5E"/>
</g>
</g>
</svg>
