<svg width="112" height="40" viewBox="0 0 112 40" fill="none" xmlns="http://www.w3.org/2000/svg">
<path d="M0.100852 15V0.454545H6.16619C7.25521 0.454545 8.16667 0.608428 8.90057 0.916193C9.6392 1.22396 10.1932 1.65483 10.5625 2.20881C10.9366 2.76278 11.1236 3.40436 11.1236 4.13352C11.1236 4.6875 11.0076 5.18229 10.7756 5.6179C10.5436 6.04877 10.224 6.40625 9.81676 6.69034C9.40956 6.97443 8.93845 7.1733 8.40341 7.28693V7.42898C8.99053 7.45739 9.53267 7.616 10.0298 7.90483C10.5317 8.19366 10.9342 8.59612 11.2372 9.11222C11.5402 9.62358 11.6918 10.2296 11.6918 10.9304C11.6918 11.7116 11.4929 12.41 11.0952 13.0256C10.6974 13.6364 10.1222 14.1193 9.36932 14.4744C8.61648 14.8248 7.70265 15 6.62784 15H0.100852ZM3.61648 12.1662H5.78977C6.55208 12.1662 7.11316 12.0218 7.47301 11.733C7.8376 11.4441 8.01989 11.0417 8.01989 10.5256C8.01989 10.1515 7.93229 9.82955 7.7571 9.55966C7.58191 9.28504 7.33333 9.07434 7.01136 8.92756C6.68939 8.77604 6.3035 8.70028 5.85369 8.70028H3.61648V12.1662ZM3.61648 6.43466H5.5625C5.94602 6.43466 6.28693 6.37074 6.58523 6.2429C6.88352 6.11506 7.11553 5.9304 7.28125 5.68892C7.4517 5.44744 7.53693 5.15625 7.53693 4.81534C7.53693 4.32765 7.36411 3.94413 7.01847 3.66477C6.67282 3.38542 6.20644 3.24574 5.61932 3.24574H3.61648V6.43466ZM13.3821 15V0.454545H23.5241V3.30966H16.8977V6.29261H23.0057V9.15483H16.8977V12.1449H23.5241V15H13.3821ZM33.5881 4.81534C33.5407 4.29451 33.33 3.88968 32.956 3.60085C32.5866 3.30729 32.0587 3.16051 31.3722 3.16051C30.9176 3.16051 30.5388 3.2197 30.2358 3.33807C29.9328 3.45644 29.7055 3.61979 29.554 3.82812C29.4025 4.03172 29.3243 4.2661 29.3196 4.53125C29.3101 4.74905 29.3527 4.94081 29.4474 5.10653C29.5469 5.27225 29.6889 5.41903 29.8736 5.54688C30.063 5.66998 30.2902 5.77888 30.5554 5.87358C30.8205 5.96828 31.1188 6.05114 31.4503 6.12216L32.7003 6.40625C33.42 6.5625 34.0545 6.77083 34.6037 7.03125C35.1577 7.29167 35.6217 7.6018 35.9957 7.96165C36.3745 8.3215 36.661 8.7358 36.8551 9.20455C37.0492 9.6733 37.1487 10.1989 37.1534 10.7812C37.1487 11.6998 36.9167 12.4882 36.4574 13.1463C35.9981 13.8045 35.3376 14.3087 34.4759 14.6591C33.6188 15.0095 32.5843 15.1847 31.3722 15.1847C30.1553 15.1847 29.0947 15.0024 28.1903 14.6378C27.286 14.2732 26.5829 13.7192 26.081 12.9759C25.5791 12.2325 25.321 11.2926 25.3068 10.1562H28.6733C28.7017 10.625 28.8272 11.0156 29.0497 11.3281C29.2723 11.6406 29.5777 11.8774 29.9659 12.0384C30.3589 12.1993 30.8134 12.2798 31.3295 12.2798C31.803 12.2798 32.2055 12.2159 32.5369 12.0881C32.8731 11.9602 33.1312 11.7827 33.3111 11.5554C33.491 11.3281 33.5833 11.0677 33.5881 10.7741C33.5833 10.4995 33.4981 10.2652 33.3324 10.071C33.1667 9.87216 32.911 9.7017 32.5653 9.55966C32.2244 9.41288 31.7888 9.27794 31.2585 9.15483L29.7386 8.79972C28.4792 8.51089 27.4872 8.04451 26.7628 7.40057C26.0384 6.75189 25.6785 5.87595 25.6832 4.77273C25.6785 3.87311 25.92 3.08475 26.4077 2.40767C26.8954 1.73059 27.5701 1.20265 28.4318 0.823864C29.2936 0.445075 30.276 0.255681 31.3793 0.255681C32.5062 0.255681 33.4839 0.447443 34.3125 0.830965C35.1458 1.20975 35.7921 1.74242 36.2514 2.42898C36.7107 3.11553 36.9451 3.91098 36.9545 4.81534H33.5881ZM38.4531 3.30966V0.454545H50.7472V3.30966H46.3366V15H42.8707V3.30966H38.4531ZM0.100852 39V24.4545H6.10938C7.19839 24.4545 8.13826 24.6676 8.92898 25.0938C9.72443 25.5152 10.3376 26.1046 10.7685 26.8622C11.1993 27.6151 11.4148 28.491 11.4148 29.4901C11.4148 30.4938 11.1946 31.3722 10.7543 32.125C10.3187 32.8731 9.69602 33.4531 8.88636 33.8651C8.0767 34.277 7.11553 34.483 6.00284 34.483H2.29545V31.7131H5.34943C5.87974 31.7131 6.32244 31.6207 6.67756 31.4361C7.03741 31.2514 7.30966 30.9934 7.49432 30.6619C7.67898 30.3258 7.77131 29.9351 7.77131 29.4901C7.77131 29.0402 7.67898 28.652 7.49432 28.3253C7.30966 27.9938 7.03741 27.7382 6.67756 27.5582C6.31771 27.3783 5.875 27.2884 5.34943 27.2884H3.61648V39H0.100852ZM13.1477 39V24.4545H19.1562C20.2453 24.4545 21.1851 24.651 21.9759 25.044C22.7713 25.4323 23.3845 25.991 23.8153 26.7202C24.2462 27.4446 24.4616 28.304 24.4616 29.2983C24.4616 30.3068 24.2415 31.1638 23.8011 31.8693C23.3608 32.5701 22.7358 33.1051 21.9261 33.4744C21.1165 33.839 20.1577 34.0213 19.0497 34.0213H15.25V31.2514H18.3963C18.9266 31.2514 19.3693 31.1828 19.7244 31.0455C20.0843 30.9034 20.3565 30.6903 20.5412 30.4062C20.7259 30.1174 20.8182 29.7481 20.8182 29.2983C20.8182 28.8485 20.7259 28.4768 20.5412 28.1832C20.3565 27.8849 20.0843 27.6624 19.7244 27.5156C19.3646 27.3641 18.9219 27.2884 18.3963 27.2884H16.6634V39H13.1477ZM21.3366 32.3523L24.9588 39H21.1236L17.5724 32.3523H21.3366ZM40.1186 31.7273C40.1186 33.3277 39.8108 34.6842 39.1953 35.7969C38.5798 36.9096 37.7464 37.7547 36.6953 38.3324C35.6489 38.91 34.4747 39.1989 33.1726 39.1989C31.8658 39.1989 30.6892 38.9077 29.6428 38.3253C28.5964 37.7429 27.7654 36.8977 27.1499 35.7898C26.5391 34.6771 26.2337 33.3229 26.2337 31.7273C26.2337 30.1269 26.5391 28.7704 27.1499 27.6577C27.7654 26.545 28.5964 25.6998 29.6428 25.1222C30.6892 24.5445 31.8658 24.2557 33.1726 24.2557C34.4747 24.2557 35.6489 24.5445 36.6953 25.1222C37.7464 25.6998 38.5798 26.545 39.1953 27.6577C39.8108 28.7704 40.1186 30.1269 40.1186 31.7273ZM36.5249 31.7273C36.5249 30.7803 36.3899 29.9801 36.12 29.3267C35.8549 28.6733 35.4714 28.1785 34.9695 27.8423C34.4723 27.5062 33.8733 27.3381 33.1726 27.3381C32.4766 27.3381 31.8776 27.5062 31.3757 27.8423C30.8738 28.1785 30.4879 28.6733 30.218 29.3267C29.9529 29.9801 29.8203 30.7803 29.8203 31.7273C29.8203 32.6742 29.9529 33.4744 30.218 34.1278C30.4879 34.7812 30.8738 35.276 31.3757 35.6122C31.8776 35.9484 32.4766 36.1165 33.1726 36.1165C33.8733 36.1165 34.4723 35.9484 34.9695 35.6122C35.4714 35.276 35.8549 34.7812 36.12 34.1278C36.3899 33.4744 36.5249 32.6742 36.5249 31.7273ZM47.5476 39H42.1712V24.4545H47.5405C49.0225 24.4545 50.2985 24.7457 51.3686 25.3281C52.4434 25.9058 53.272 26.7391 53.8544 27.8281C54.4368 28.9124 54.728 30.2098 54.728 31.7202C54.728 33.2353 54.4368 34.5374 53.8544 35.6264C53.2768 36.7154 52.4505 37.5511 51.3757 38.1335C50.3009 38.7112 49.0249 39 47.5476 39ZM45.6868 36.0028H47.4126C48.227 36.0028 48.916 35.8655 49.4794 35.5909C50.0476 35.3116 50.4761 34.8594 50.7649 34.2344C51.0585 33.6046 51.2053 32.7666 51.2053 31.7202C51.2053 30.6738 51.0585 29.8404 50.7649 29.2202C50.4714 28.5952 50.0381 28.1454 49.4652 27.8707C48.897 27.5914 48.1963 27.4517 47.3629 27.4517H45.6868V36.0028ZM65.5803 24.4545H69.0888V33.8366C69.0888 34.9209 68.8307 35.8655 68.3146 36.6705C67.7985 37.4706 67.0788 38.0909 66.1555 38.5312C65.2322 38.9669 64.1598 39.1847 62.9382 39.1847C61.7024 39.1847 60.6229 38.9669 59.6996 38.5312C58.7763 38.0909 58.0589 37.4706 57.5476 36.6705C57.0362 35.8655 56.7805 34.9209 56.7805 33.8366V24.4545H60.2962V33.5312C60.2962 34.0331 60.4051 34.4806 60.6229 34.8736C60.8454 35.2666 61.1555 35.5743 61.5533 35.7969C61.951 36.0194 62.4126 36.1307 62.9382 36.1307C63.4638 36.1307 63.9231 36.0194 64.3161 35.7969C64.7138 35.5743 65.0239 35.2666 65.2464 34.8736C65.469 34.4806 65.5803 34.0331 65.5803 33.5312V24.4545ZM84.4954 29.7244H80.9442C80.8969 29.3598 80.7998 29.0308 80.6531 28.7372C80.5063 28.4437 80.3121 28.1927 80.0707 27.9844C79.8292 27.776 79.5427 27.6174 79.2113 27.5085C78.8846 27.3949 78.5224 27.3381 78.1246 27.3381C77.4192 27.3381 76.8107 27.5109 76.2994 27.8565C75.7927 28.2022 75.4021 28.7017 75.1275 29.3551C74.8576 30.0085 74.7227 30.7992 74.7227 31.7273C74.7227 32.6932 74.86 33.5028 75.1346 34.1562C75.4139 34.8049 75.8046 35.295 76.3065 35.6264C76.8131 35.9531 77.4121 36.1165 78.1033 36.1165C78.4916 36.1165 78.8443 36.0668 79.1616 35.9673C79.4835 35.8679 79.7653 35.7235 80.0067 35.5341C80.253 35.34 80.4542 35.1056 80.6104 34.831C80.7714 34.5516 80.8827 34.2367 80.9442 33.8864L84.4954 33.9077C84.4338 34.5516 84.2468 35.1861 83.9343 35.8111C83.6265 36.4361 83.2028 37.0066 82.663 37.5227C82.1232 38.0341 81.4651 38.4413 80.6886 38.7443C79.9168 39.0473 79.0314 39.1989 78.0323 39.1989C76.716 39.1989 75.5371 38.91 74.4954 38.3324C73.4585 37.75 72.6393 36.9025 72.038 35.7898C71.4367 34.6771 71.136 33.3229 71.136 31.7273C71.136 30.1269 71.4414 28.7704 72.0522 27.6577C72.663 26.545 73.4892 25.6998 74.5309 25.1222C75.5726 24.5445 76.7397 24.2557 78.0323 24.2557C78.913 24.2557 79.7274 24.3788 80.4755 24.625C81.2236 24.8665 81.8817 25.2216 82.4499 25.6903C83.0181 26.1544 83.4798 26.7249 83.8349 27.402C84.19 28.0791 84.4102 28.8532 84.4954 29.7244ZM86.0312 27.3097V24.4545H98.3253V27.3097H93.9148V39H90.4489V27.3097H86.0312ZM107.904 28.8153C107.857 28.2945 107.646 27.8897 107.272 27.6009C106.903 27.3073 106.375 27.1605 105.689 27.1605C105.234 27.1605 104.855 27.2197 104.552 27.3381C104.249 27.4564 104.022 27.6198 103.87 27.8281C103.719 28.0317 103.641 28.2661 103.636 28.5312C103.627 28.7491 103.669 28.9408 103.764 29.1065C103.863 29.2723 104.005 29.419 104.19 29.5469C104.379 29.67 104.607 29.7789 104.872 29.8736C105.137 29.9683 105.435 30.0511 105.767 30.1222L107.017 30.4062C107.736 30.5625 108.371 30.7708 108.92 31.0312C109.474 31.2917 109.938 31.6018 110.312 31.9616C110.691 32.3215 110.977 32.7358 111.172 33.2045C111.366 33.6733 111.465 34.1989 111.47 34.7812C111.465 35.6998 111.233 36.4882 110.774 37.1463C110.315 37.8045 109.654 38.3087 108.792 38.6591C107.935 39.0095 106.901 39.1847 105.689 39.1847C104.472 39.1847 103.411 39.0024 102.507 38.6378C101.602 38.2732 100.899 37.7192 100.397 36.9759C99.8955 36.2325 99.6374 35.2926 99.6232 34.1562H102.99C103.018 34.625 103.144 35.0156 103.366 35.3281C103.589 35.6406 103.894 35.8774 104.282 36.0384C104.675 36.1993 105.13 36.2798 105.646 36.2798C106.119 36.2798 106.522 36.2159 106.853 36.0881C107.19 35.9602 107.448 35.7827 107.627 35.5554C107.807 35.3281 107.9 35.0677 107.904 34.7741C107.9 34.4995 107.815 34.2652 107.649 34.071C107.483 33.8722 107.227 33.7017 106.882 33.5597C106.541 33.4129 106.105 33.2779 105.575 33.1548L104.055 32.7997C102.796 32.5109 101.804 32.0445 101.079 31.4006C100.355 30.7519 99.9949 29.8759 99.9996 28.7727C99.9949 27.8731 100.236 27.0848 100.724 26.4077C101.212 25.7306 101.886 25.2027 102.748 24.8239C103.61 24.4451 104.592 24.2557 105.696 24.2557C106.823 24.2557 107.8 24.4474 108.629 24.831C109.462 25.2098 110.109 25.7424 110.568 26.429C111.027 27.1155 111.261 27.911 111.271 28.8153H107.904Z" fill="#435C6B"/>
</svg>
