<svg width="85" height="85" viewBox="0 0 85 85" fill="none" xmlns="http://www.w3.org/2000/svg">
<path d="M23.6802 31.8646C24.9036 34.4751 26.2228 37.2989 27.5173 39.7983H62.9193C63.2313 37.6017 63.5186 34.5802 63.7441 31.8646H23.6802Z" fill="#AF8023"/>
<path d="M65.3816 23.8876H19.8833C20.3653 24.8268 22.1232 27.6537 22.6731 28.8153H63.9172C64.013 27.5394 65.3291 24.6816 65.3816 23.8876Z" fill="#766ED3"/>
<path d="M32.8872 47.9451C36.7583 48.9307 61.273 45.2697 62.2586 43.6261C62.3543 43.4685 62.4501 43.1719 62.5428 42.7734H28.667C30.2426 45.5817 31.7255 47.6486 32.8872 47.9451Z" fill="#F8DC25"/>
<path d="M72.0735 20.7827C68.5423 20.7827 67.2602 24.8392 66.6546 29.7267H63.9174H22.6733H21.0667C17.8939 24.1348 14.3534 19.7261 9.74082 19.7261C9.15074 19.7261 8.67188 20.205 8.67188 20.7951C8.67188 21.3852 9.15074 21.864 9.74082 21.864C13.028 21.864 15.9383 25.2964 18.5859 29.7298H18.1936C17.6035 29.7298 17.1246 30.2086 17.1246 30.7987C17.1246 31.3888 17.6035 31.8677 18.1936 31.8677H19.8062C20.8937 33.8542 21.938 35.9519 22.9482 37.9786C23.2541 38.5965 23.5568 39.202 23.8596 39.8014H23.4796C22.8895 39.8014 22.4107 40.2802 22.4107 40.8703C22.4107 41.4604 22.8895 41.9393 23.4796 41.9393H24.9471C27.984 47.803 30.8881 52.292 34.6789 52.292C41.2594 52.292 54.9951 50.5032 62.1719 48.1089C56.9013 52.6535 46.5454 54.6894 38.4325 56.2805C30.5884 57.8221 26.8008 58.6625 26.4115 60.8992C26.291 61.5851 26.4733 62.2246 26.9367 62.7467C28.157 64.1277 31.2774 64.347 33.1156 64.347V65.6446C32.0652 66.0679 31.3206 67.0936 31.3206 68.2954C31.3206 69.8772 32.6027 71.1562 34.1815 71.1562C35.7632 71.1562 37.0423 69.8741 37.0423 68.2954C37.0423 67.0936 36.2977 66.0679 35.2473 65.6446V64.3223H58.8167V65.6446C57.7663 66.0679 57.0217 67.0936 57.0217 68.2954C57.0217 69.8772 58.3039 71.1562 59.8826 71.1562C61.4644 71.1562 62.7434 69.8741 62.7434 68.2954C62.7434 67.0936 61.9988 66.0679 60.9484 65.6446V64.3223H66.5311C67.1212 64.3223 67.6 63.8435 67.6 63.2534C67.6 62.6633 67.1212 62.1844 66.5311 62.1844H59.8826H34.1845C34.1815 62.1844 34.1814 62.1844 34.1784 62.1844C34.1753 62.1844 34.1753 62.1844 34.1722 62.1844H34.1289C31.2928 62.3234 28.7317 61.8106 28.503 61.2947C28.9881 60.3091 34.6819 59.1908 38.8403 58.3751C50.191 56.1476 65.6876 53.0953 67.5351 43.209C67.5475 43.1534 67.5599 43.0978 67.5691 43.0391C67.5753 43.0051 67.5846 42.9711 67.5907 42.9372C67.5907 42.931 67.5907 42.9279 67.5907 42.9217C67.6494 42.6097 67.7051 42.2853 67.7576 41.9362H68.6906C69.2807 41.9362 69.7595 41.4573 69.7595 40.8672C69.7595 40.2771 69.2807 39.7983 68.6906 39.7983H67.9986C68.1005 38.6768 68.1839 37.4256 68.2735 36.0322C68.3569 34.7161 68.4496 33.2826 68.5794 31.8646H69.327C69.9171 31.8646 70.396 31.3857 70.396 30.7956C70.396 30.2055 69.9171 29.7267 69.327 29.7267H68.8142C69.293 26.0348 70.1735 22.9175 72.0735 22.9175C72.6636 22.9175 73.1425 22.4387 73.1425 21.8486C73.1394 21.2616 72.6636 20.7827 72.0735 20.7827ZM27.3599 41.9362H28.6668H62.5426H65.595C65.5548 42.205 65.5085 42.4583 65.459 42.6962C65.4436 42.7889 65.422 42.8754 65.4034 42.965C65.2335 43.7188 65.0265 44.2873 64.767 44.5499C62.2923 47.0214 43.9781 50.1541 34.6727 50.1541C32.2351 50.151 29.7759 46.4715 27.3599 41.9362ZM66.1418 35.8963C66.0615 37.1537 65.975 38.5223 65.8545 39.7983H62.9226H27.5175H26.2477C25.7812 38.8807 25.3178 37.9508 24.8575 37.024C23.9955 35.2908 23.1274 33.5452 22.2346 31.8646H23.6773H63.7444H66.4291C66.3117 33.2023 66.2252 34.5648 66.1418 35.8963Z" fill="#435C6B"/>
</svg>
