<svg width="39" height="39" viewBox="0 0 39 39" fill="none" xmlns="http://www.w3.org/2000/svg">
<g id="seach_icon 1">
<g id="&#208;&#191;&#208;&#190;&#208;&#184;&#209;&#129;&#208;&#186;">
<g id="Group">
<g id="Group_2">
<path id="Vector" d="M15.2102 6.396C20.0462 6.396 24.0242 10.374 24.0242 15.21C24.0242 20.046 20.0462 24.024 15.2102 24.024C10.3742 24.024 6.39615 20.124 6.39615 15.21C6.39615 10.296 10.2962 6.396 15.2102 6.396ZM15.2102 4.056C9.04815 4.056 4.05615 9.048 4.05615 15.21C4.05615 21.372 9.04815 26.364 15.2102 26.364C21.3722 26.364 26.3642 21.372 26.3642 15.21C26.3642 9.048 21.2942 4.056 15.2102 4.056Z" fill="#435C6B"/>
</g>
</g>
<path id="Vector_2" d="M22.4644 22.386L25.0384 24.96" stroke="#435C6B" stroke-width="3" stroke-miterlimit="10"/>
<path id="Vector_3" d="M34.9442 34.944L25.7402 25.74" stroke="#435C6B" stroke-width="5" stroke-miterlimit="10" stroke-linecap="round"/>
</g>
</g>
</svg>
