<svg width="62" height="62" viewBox="0 0 62 62" fill="none" xmlns="http://www.w3.org/2000/svg">
<g id="unknown user" clip-path="url(#clip0_104_146)">
<g id="icons">
<path id="user2" d="M31 0C13.95 0 0 13.95 0 31C0 48.05 13.95 62 31 62C48.05 62 62 48.05 62 31C62 13.95 48.05 0 31 0ZM31 10.3333C36.6833 10.3333 41.3333 16.0167 41.3333 23.25C41.3333 30.4833 36.6833 36.1667 31 36.1667C25.3167 36.1667 20.6667 30.4833 20.6667 23.25C20.6667 16.0167 25.3167 10.3333 31 10.3333ZM48.05 50.375C43.6583 54.25 37.4583 56.8333 31 56.8333C24.5417 56.8333 18.3417 54.25 13.95 50.375C12.9167 49.3417 12.6583 47.7917 13.6917 46.7583C16.5333 43.4 20.4083 41.075 24.5417 39.7833C26.6083 40.8167 28.675 41.3333 31 41.3333C33.325 41.3333 35.3917 40.8167 37.4583 39.7833C41.85 41.075 45.4667 43.4 48.3083 46.7583C49.3417 47.7917 49.3417 49.3417 48.05 50.375Z" fill="#766ED3"/>
</g>
</g>
<defs>
<clipPath id="clip0_104_146">
<rect width="62" height="62" fill="white"/>
</clipPath>
</defs>
</svg>
